<?xml version="1.0" encoding="UTF-8" standalone="no"?>
<svg
   xmlns:dc="http://purl.org/dc/elements/1.1/"
   xmlns:cc="http://creativecommons.org/ns#"
   xmlns:rdf="http://www.w3.org/1999/02/22-rdf-syntax-ns#"
   xmlns:svg="http://www.w3.org/2000/svg"
   xmlns="http://www.w3.org/2000/svg"
   width="330"
   height="20"
   viewBox="0 0 87.312495 5.2916668"
   version="1.1"
   id="svg8">
  <defs
     id="defs2" />
  <metadata
     id="metadata5">
    <rdf:RDF>
      <cc:Work
         rdf:about="">
        <dc:format>image/svg+xml</dc:format>
        <dc:type
           rdf:resource="http://purl.org/dc/dcmitype/StillImage" />
        <dc:title></dc:title>
      </cc:Work>
    </rdf:RDF>
  </metadata>
  <g
     id="layer1">
    <g
       aria-label="planet4-pm-group@greenpeace.org "
       id="text835"
       style="font-style:normal;font-weight:normal;font-size:7.05556px;line-height:1.25;font-family:sans-serif;letter-spacing:0px;word-spacing:0px;fill:#ffffff;fill-opacity:1;stroke:none;stroke-width:0.264583"
       transform="matrix(0.73099369,0,0,0.73099369,-0.05412576,-0.061889)">
      <path
         d="m 0.16237259,6.7521685 q 0.26811128,0 0.34572244,-0.1481668 0.0776112,-0.1481668 0.0776112,-0.4797781 V 3.1397217 q 0,-0.3175002 0.0282222,-0.5997226 L 0.11298367,2.5611657 V 2.0249432 q 0.44450028,0 0.71966713,-0.0635 0.2751668,-0.0635 0.3668891,-0.1481667 h 0.3457225 q 0.014111,0.1199445 0.035278,0.3386669 h 0.00706 Q 2.0250405,1.770943 2.5330408,1.770943 q 0.4233336,0 0.7408338,0.2187224 0.3245558,0.2187223 0.5009448,0.6279448 0.1834445,0.402167 0.1834445,0.9383895 0,0.5644448 -0.2187223,1.0160007 Q 3.5208192,5.0165007 3.1186523,5.2705008 2.7235409,5.524501 2.208485,5.524501 q -0.2751668,0 -0.6279448,-0.1270001 v 0.6773338 q 0,0.3033891 -0.021167,0.6208893 Q 1.7780956,6.674557 2.010929,6.674557 V 7.2107799 H 0.16237259 Z M 2.0673738,4.995334 q 0.8537228,0 0.8537228,-1.3335009 0,-0.5221114 -0.1905001,-0.8890005 -0.1834446,-0.3668892 -0.5573893,-0.3668892 -0.176389,0 -0.3386669,0.084667 -0.1552223,0.084667 -0.2540001,0.225778 v 2.1519458 q 0.070556,0.049389 0.2046112,0.091722 0.1411112,0.035278 0.2822224,0.035278 z"
         style="font-style:normal;font-variant:normal;font-weight:normal;font-stretch:normal;font-size:7.05556px;font-family:Lora;-inkscape-font-specification:Lora;fill:#ffffff;stroke-width:0.264583"
         id="path905" />
      <path
         d="m 4.332196,4.9530006 q 0.1905001,0 0.2751668,-0.070556 0.091722,-0.077611 0.112889,-0.2046112 0.028222,-0.1270001 0.028222,-0.352778 V 1.4252206 q 0,-0.3386669 0.028222,-0.61383376 L 4.2828071,0.83255352 V 0.29633095 q 0.4445003,0 0.7196671,-0.0635 0.2751669,-0.0635 0.3668891,-0.14816676 H 5.7503636 V 4.2756669 q 0,0.3386668 -0.028222,0.6208892 0.2328335,-0.021167 0.4586114,-0.021167 V 5.411612 H 4.332196 Z"
         style="font-style:normal;font-variant:normal;font-weight:normal;font-stretch:normal;font-size:7.05556px;font-family:Lora;-inkscape-font-specification:Lora;fill:#ffffff;stroke-width:0.264583"
         id="path907" />
      <path
         d="m 7.528353,5.524501 q -0.4445003,0 -0.705556,-0.2610557 Q 6.5687968,4.995334 6.5687968,4.5861115 q 0,-0.6208893 0.578556,-0.9383895 Q 7.7259087,3.3231662 8.5372981,3.2878884 V 2.9209993 q 0,-0.642056 -0.4797781,-0.642056 -0.3104446,0 -0.5080003,0.1975557 0.084667,0.098778 0.084667,0.2681113 0,0.1693335 -0.1199445,0.3033891 Q 7.4013529,3.182055 7.175575,3.182055 6.9639082,3.182055 6.8439637,3.0479994 6.7240192,2.9068882 6.7240192,2.702277 q 0,-0.2751669 0.1975556,-0.4868337 Q 7.1191305,2.0037765 7.4577974,1.8908875 7.8035199,1.770943 8.2127423,1.770943 q 1.3052787,0 1.3052787,1.347612 l -0.00706,1.1571119 q 0,0.3386668 -0.028222,0.6208892 0.2328334,-0.021167 0.4586114,-0.021167 V 5.411612 H 8.6078537 Q 8.5937426,5.3198898 8.5796315,5.0870563 h -0.00706 Q 8.1421867,5.524501 7.528353,5.524501 Z M 7.9728533,4.8330561 q 0.3175002,0 0.5573892,-0.2540002 V 3.7888332 Q 8.1139645,3.8311666 7.8387977,4.0005 7.5706864,4.1698335 7.5706864,4.4591114 q 0,0.1905001 0.1128889,0.2822224 0.1199446,0.091722 0.289278,0.091722 z"
         style="font-style:normal;font-variant:normal;font-weight:normal;font-stretch:normal;font-size:7.05556px;font-family:Lora;-inkscape-font-specification:Lora;fill:#ffffff;stroke-width:0.264583"
         id="path909" />
      <path
         d="m 10.34351,4.9530006 q 0.268111,0 0.338666,-0.1481667 0.07761,-0.1481668 0.07761,-0.4797781 V 3.1397217 q 0,-0.3175002 0.02822,-0.5997226 l -0.493889,0.021167 V 2.0249432 q 0.4445,0 0.719667,-0.0635 0.275167,-0.0635 0.366889,-0.1481667 h 0.345722 q 0,0.014111 0.02822,0.352778 h 0.01411 q 0.204611,-0.1622779 0.500944,-0.2751669 0.30339,-0.1199445 0.515056,-0.1199445 0.642056,0 0.917223,0.3668891 0.275167,0.3668892 0.275167,1.1923897 V 4.275667 q 0,0.3386668 -0.02822,0.6208892 0.232833,-0.021167 0.458611,-0.021167 V 5.411612 H 12.558955 V 4.9530006 q 0.268112,0 0.345723,-0.1481667 0.07761,-0.1481668 0.07761,-0.4797781 l -0.0071,-1.0018896 q 0,-0.4656669 -0.134056,-0.6843893 -0.127,-0.2187224 -0.437445,-0.2187224 -0.169333,0 -0.345722,0.077611 -0.176389,0.070556 -0.296334,0.1834446 v 1.5945566 q 0,0.3386668 -0.02822,0.6208892 0.225778,-0.021167 0.458611,-0.021167 V 5.411612 H 10.34351 Z"
         style="font-style:normal;font-variant:normal;font-weight:normal;font-stretch:normal;font-size:7.05556px;font-family:Lora;-inkscape-font-specification:Lora;fill:#ffffff;stroke-width:0.264583"
         id="path911" />
      <path
         d="m 16.503011,5.524501 q -0.515056,0 -0.910168,-0.2257779 Q 15.197732,5.0658896 14.97901,4.642556 14.760287,4.2192224 14.760287,3.6547776 q 0,-0.4938892 0.218723,-0.9242784 0.225778,-0.4374447 0.627944,-0.6985005 0.402167,-0.2610557 0.917223,-0.2610557 0.68439,0 1.135945,0.4021669 0.458612,0.402167 0.451556,1.3405565 l -2.314223,0.042333 q 0,0.6208893 0.232833,0.9807229 0.239889,0.3598335 0.762001,0.3598335 0.246944,0 0.529167,-0.127 0.282222,-0.1270001 0.508,-0.402167 l 0.3175,0.2963336 Q 17.547234,5.524501 16.503011,5.524501 Z m 0.635,-2.4623905 q -0.02117,-0.7972783 -0.578556,-0.7972783 -0.303389,0 -0.486834,0.2187224 -0.176389,0.2116668 -0.232833,0.5785559 z"
         style="font-style:normal;font-variant:normal;font-weight:normal;font-stretch:normal;font-size:7.05556px;font-family:Lora;-inkscape-font-specification:Lora;fill:#ffffff;stroke-width:0.264583"
         id="path913" />
      <path
         d="m 20.023722,5.524501 q -1.100667,0 -1.100667,-1.3546675 l 0.01411,-1.70039 H 18.457388 V 1.883832 q 0.225778,0 0.423333,-0.1411112 Q 19.085333,1.6016096 19.226444,1.3969983 19.367555,1.1923871 19.424,1.001887 h 0.522111 l -0.0071,0.881945 h 0.896057 v 0.5432781 l -0.896057,0.021167 -0.0071,1.7356678 q 0,0.6843893 0.423334,0.6843893 0.338666,0 0.642055,-0.4233336 l 0.338667,0.3175002 Q 21.004445,5.2493342 20.672834,5.3904454 20.341222,5.524501 20.023722,5.524501 Z"
         style="font-style:normal;font-variant:normal;font-weight:normal;font-stretch:normal;font-size:7.05556px;font-family:Lora;-inkscape-font-specification:Lora;fill:#ffffff;stroke-width:0.264583"
         id="path915" />
      <path
         d="m 22.676601,4.9459451 q 0.1905,-0.00706 0.289278,-0.042333 0.09878,-0.042333 0.155222,-0.1693334 0.05645,-0.1270001 0.05645,-0.402167 V 4.1345557 H 21.336045 V 3.471333 l 2.420057,-3.11150201 h 0.430389 V 3.4995552 h 0.691445 v 0.6350005 h -0.691445 v 0.1199445 q 0,0.4727225 -0.02822,0.6350004 0.232833,-0.021167 0.529167,-0.021167 V 5.411612 h -2.010835 z m 0.508001,-3.0197798 h -0.0071 l -1.185334,1.5522233 1.185334,0.00706 z"
         style="font-style:normal;font-variant:normal;font-weight:normal;font-stretch:normal;font-size:7.05556px;font-family:Lora;-inkscape-font-specification:Lora;fill:#ffffff;stroke-width:0.264583"
         id="path917" />
      <path
         d="m 25.470594,2.8151659 h 2.596446 v 0.7408338 l -2.596446,0.021167 z"
         style="font-style:normal;font-variant:normal;font-weight:normal;font-stretch:normal;font-size:7.05556px;font-family:Lora;-inkscape-font-specification:Lora;fill:#ffffff;stroke-width:0.264583"
         id="path919" />
      <path
         d="m 28.652643,6.7521685 q 0.268111,0 0.345723,-0.1481668 0.07761,-0.1481668 0.07761,-0.4797781 V 3.1397217 q 0,-0.3175002 0.02822,-0.5997226 l -0.500945,0.021167 V 2.0249432 q 0.444501,0 0.719667,-0.0635 0.275167,-0.0635 0.36689,-0.1481667 h 0.345722 q 0.01411,0.1199445 0.03528,0.3386669 h 0.0071 q 0.437445,-0.3810003 0.945445,-0.3810003 0.423334,0 0.740834,0.2187224 0.324556,0.2187223 0.500945,0.6279448 0.183445,0.402167 0.183445,0.9383895 0,0.5644448 -0.218723,1.0160007 -0.218722,0.4445003 -0.620889,0.6985004 -0.395111,0.2540002 -0.910167,0.2540002 -0.275167,0 -0.627945,-0.1270001 v 0.6773338 q 0,0.3033891 -0.02117,0.6208893 0.218722,-0.021167 0.451556,-0.021167 V 7.2107799 H 28.652643 Z M 30.557644,4.995334 q 0.853723,0 0.853723,-1.3335009 0,-0.5221114 -0.1905,-0.8890005 -0.183444,-0.3668892 -0.557389,-0.3668892 -0.176389,0 -0.338667,0.084667 -0.155222,0.084667 -0.254,0.225778 v 2.1519458 q 0.07056,0.049389 0.204611,0.091722 0.141111,0.035278 0.282222,0.035278 z"
         style="font-style:normal;font-variant:normal;font-weight:normal;font-stretch:normal;font-size:7.05556px;font-family:Lora;-inkscape-font-specification:Lora;fill:#ffffff;stroke-width:0.264583"
         id="path921" />
      <path
         d="m 32.963591,4.9530006 q 0.268112,0 0.338667,-0.1481667 0.07761,-0.1481668 0.07761,-0.4797781 V 3.1397217 q 0,-0.3175002 0.02822,-0.5997226 l -0.493889,0.021167 V 2.0249432 q 0.4445,0 0.719667,-0.0635 0.275167,-0.0635 0.366889,-0.1481667 h 0.345722 q 0,0.014111 0.02822,0.352778 h 0.01411 q 0.218722,-0.176389 0.493889,-0.2822224 0.275167,-0.112889 0.536222,-0.112889 0.317501,0 0.529167,0.1199445 0.218723,0.112889 0.345723,0.3457225 0.254,-0.2116668 0.564445,-0.3386669 0.310444,-0.1270001 0.585611,-0.1270001 0.585612,0 0.867834,0.3386669 0.289278,0.3386669 0.289278,1.1288896 V 4.275667 q 0,0.3386668 -0.02822,0.6208892 0.225778,-0.021167 0.458611,-0.021167 V 5.411612 H 37.246316 V 4.9530006 q 0.225778,0 0.289278,-0.1481667 0.0635,-0.1552224 0.0635,-0.4797781 V 3.2455551 q -0.0071,-0.4445003 -0.148166,-0.6279449 -0.141111,-0.1905001 -0.409223,-0.1905001 -0.310444,0 -0.606778,0.2328335 0.0635,0.2822224 0.0635,0.6702782 v 0.9454451 q 0,0.3386668 -0.02822,0.6208892 0.225778,-0.021167 0.458611,-0.021167 V 5.411612 H 35.108482 V 4.9530006 q 0.246944,0 0.3175,-0.1481667 0.07056,-0.1481668 0.07056,-0.4797781 l -0.0071,-1.1006674 q 0,-0.4374447 -0.127,-0.6138337 -0.127,-0.1834446 -0.381,-0.1905002 -0.310445,0 -0.599723,0.2610558 v 1.5945566 q 0,0.3386668 -0.02822,0.6208892 0.225778,-0.021167 0.423333,-0.021167 V 5.411612 h -1.813279 z"
         style="font-style:normal;font-variant:normal;font-weight:normal;font-stretch:normal;font-size:7.05556px;font-family:Lora;-inkscape-font-specification:Lora;fill:#ffffff;stroke-width:0.264583"
         id="path923" />
      <path
         d="m 39.461744,2.8151659 h 2.596446 v 0.7408338 l -2.596446,0.021167 z"
         style="font-style:normal;font-variant:normal;font-weight:normal;font-stretch:normal;font-size:7.05556px;font-family:Lora;-inkscape-font-specification:Lora;fill:#ffffff;stroke-width:0.264583"
         id="path925" />
      <path
         d="m 44.231292,7.3236688 q -0.853723,0 -1.234723,-0.2610557 -0.373944,-0.2610557 -0.373944,-0.6632227 0,-0.2469446 0.155222,-0.4656669 Q 42.940125,5.7220567 43.292903,5.588001 43.017736,5.51039 42.890736,5.348112 42.770791,5.1858341 42.770791,4.9671117 q 0,-0.2116668 0.162278,-0.4303891 0.169334,-0.2187224 0.522112,-0.3245558 v -0.00706 Q 43.13768,4.0781112 42.94718,3.8099999 42.763736,3.534833 42.763736,3.1608884 q 0,-0.3951114 0.218722,-0.7126116 0.225778,-0.3175002 0.585612,-0.4938892 0.366889,-0.1834446 0.769056,-0.1834446 0.211666,0 0.4445,0.056445 0.232833,0.049389 0.395111,0.1622779 0.134056,-0.3668891 0.359834,-0.6067782 0.225778,-0.2469446 0.536222,-0.2469446 0.232834,0 0.359834,0.1199445 0.127,0.1199445 0.127,0.3316114 0,0.1622778 -0.105833,0.2963335 -0.09878,0.1340556 -0.317501,0.1340556 -0.112889,0 -0.225777,-0.077611 -0.105834,-0.084667 -0.127001,-0.1975557 -0.09172,0.028222 -0.183444,0.1834445 -0.09172,0.1481668 -0.105834,0.2751669 0.197556,0.176389 0.30339,0.4092225 0.112889,0.2328335 0.112889,0.5009447 0,0.3951114 -0.225778,0.7196672 -0.225778,0.3175002 -0.592667,0.5009447 -0.36689,0.176389 -0.783168,0.176389 l -0.197555,-0.00706 q -0.155223,-0.014111 -0.225778,-0.014111 -0.155223,0 -0.261056,0.056444 -0.105833,0.056445 -0.105833,0.1552224 0,0.127 0.1905,0.1834445 0.197555,0.049389 0.712611,0.077611 0.889001,0.049389 1.347612,0.2963335 0.458612,0.2469446 0.458612,0.8255005 0,0.3810003 -0.296334,0.6632227 -0.289278,0.2822224 -0.754945,0.4303892 -0.458611,0.1481667 -0.945445,0.1481667 z m 0.105834,-3.287891 q 0.268111,0 0.423333,-0.239889 0.162278,-0.2398891 0.162278,-0.5573893 0,-0.4021669 -0.155222,-0.6985004 -0.155223,-0.2963336 -0.437445,-0.2963336 -0.268111,0 -0.430389,0.2469446 -0.162278,0.2469447 -0.162278,0.5856115 0,0.3951114 0.162278,0.6773338 0.162278,0.2822224 0.437445,0.2822224 z m 0.09878,2.8010574 q 0.317501,0 0.543279,-0.084667 0.232833,-0.084667 0.352778,-0.2187224 0.119944,-0.1270001 0.119944,-0.2610557 0,-0.2187224 -0.254,-0.3316114 -0.246945,-0.1128889 -0.762001,-0.1340556 -0.05644,-0.00706 -0.183444,-0.00706 -0.07056,-0.00706 -0.246945,-0.021167 -0.176389,-0.00706 -0.289278,-0.028222 -0.105833,0.084667 -0.169333,0.2187224 -0.05645,0.1340556 -0.05645,0.2681113 0,0.2751668 0.254001,0.4374447 0.261055,0.1622779 0.691444,0.1622779 z"
         style="font-style:normal;font-variant:normal;font-weight:normal;font-stretch:normal;font-size:7.05556px;font-family:Lora;-inkscape-font-specification:Lora;fill:#ffffff;stroke-width:0.264583"
         id="path927" />
      <path
         d="m 46.64429,4.9530006 q 0.268111,0 0.338667,-0.1481667 0.07761,-0.1481668 0.07761,-0.4797781 V 3.1397217 q 0,-0.3175002 0.02822,-0.5997226 l -0.493889,0.021167 V 2.0249432 q 0.4445,0 0.719667,-0.0635 0.275167,-0.0635 0.366889,-0.1481667 h 0.345723 q 0.01411,0.1058334 0.02117,0.2751668 0.0071,0.1693335 0.0071,0.3316113 h 0.01411 q 0.479778,-0.6491115 1.016001,-0.6491115 0.268111,0 0.437444,0.1481668 0.176389,0.1481667 0.176389,0.4374447 0,0.1834446 -0.119944,0.3386669 -0.119945,0.1552223 -0.359834,0.1552223 -0.176389,0 -0.3175,-0.091722 -0.134056,-0.091722 -0.155222,-0.3175002 -0.197556,0 -0.409223,0.2328335 -0.204611,0.2257779 -0.275167,0.4515559 v 1.1500563 q 0,0.3386668 -0.02822,0.6208892 0.225778,-0.021167 0.458612,-0.021167 V 5.411612 H 46.64429 Z"
         style="font-style:normal;font-variant:normal;font-weight:normal;font-stretch:normal;font-size:7.05556px;font-family:Lora;-inkscape-font-specification:Lora;fill:#ffffff;stroke-width:0.264583"
         id="path929" />
      <path
         d="m 51.703114,5.524501 q -0.515056,0 -0.924279,-0.2187224 -0.409222,-0.2187223 -0.642056,-0.6279448 -0.232833,-0.4092225 -0.232833,-0.9525006 0,-0.5715004 0.239889,-1.0160007 0.239889,-0.4445003 0.642056,-0.6914449 0.409222,-0.2469446 0.896056,-0.2469446 0.508,0 0.910167,0.2187224 0.402167,0.2187223 0.635001,0.6350004 0.232833,0.4092225 0.232833,0.9595562 0,0.5856115 -0.225778,1.0230562 -0.218722,0.4374447 -0.620889,0.6773338 -0.395111,0.239889 -0.910167,0.239889 z m 0.01411,-0.5009448 q 0.388056,0 0.543278,-0.3598335 0.155222,-0.3598336 0.155222,-0.9031117 0,-0.6067782 -0.176389,-1.0512785 -0.176389,-0.4445003 -0.557389,-0.4445003 -0.388056,0 -0.564445,0.3668891 -0.176389,0.3668892 -0.176389,0.9031117 0,0.6138338 0.1905,1.0512785 0.190501,0.4374447 0.585612,0.4374447 z"
         style="font-style:normal;font-variant:normal;font-weight:normal;font-stretch:normal;font-size:7.05556px;font-family:Lora;-inkscape-font-specification:Lora;fill:#ffffff;stroke-width:0.264583"
         id="path931" />
      <path
         d="m 55.428449,5.524501 q -0.627945,0 -0.903112,-0.3668891 Q 54.257226,4.7907227 54.257226,3.9652222 V 3.1538328 q 0,-0.2963335 0.02117,-0.6138337 l -0.49389,0.021167 V 2.0249432 q 0.444501,0 0.719667,-0.0635 0.275167,-0.0635 0.36689,-0.1481667 h 0.388055 v 2.1590014 q 0,0.4656669 0.119945,0.6843893 0.119944,0.2187224 0.381,0.2187224 0.176389,0 0.359834,-0.098778 0.1905,-0.098778 0.3175,-0.239889 V 3.1538328 q 0,-0.3316113 0.02822,-0.6138337 l -0.493889,0.021167 V 2.0249432 q 0.4445,0 0.712612,-0.0635 0.275166,-0.0635 0.366889,-0.1481667 h 0.388055 V 4.275667 q 0,0.3386668 -0.02822,0.6208892 0.225778,-0.021167 0.458612,-0.021167 V 5.411612 h -1.340557 l -0.04233,-0.3668891 h -0.0071 q -0.261055,0.2257779 -0.508,0.352778 Q 55.7318,5.524501 55.428411,5.524501 Z"
         style="font-style:normal;font-variant:normal;font-weight:normal;font-stretch:normal;font-size:7.05556px;font-family:Lora;-inkscape-font-specification:Lora;fill:#ffffff;stroke-width:0.264583"
         id="path933" />
      <path
         d="m 58.257713,6.7521685 q 0.268112,0 0.345723,-0.1481668 0.07761,-0.1481668 0.07761,-0.4797781 V 3.1397217 q 0,-0.3175002 0.02822,-0.5997226 l -0.500945,0.021167 V 2.0249432 q 0.444501,0 0.719668,-0.0635 0.275166,-0.0635 0.366889,-0.1481667 H 59.6406 q 0.01411,0.1199445 0.03528,0.3386669 h 0.0071 q 0.437445,-0.3810003 0.945446,-0.3810003 0.423333,0 0.740833,0.2187224 0.324556,0.2187223 0.500945,0.6279448 0.183445,0.402167 0.183445,0.9383895 0,0.5644448 -0.218723,1.0160007 -0.218722,0.4445003 -0.620889,0.6985004 -0.395111,0.2540002 -0.910167,0.2540002 -0.275167,0 -0.627945,-0.1270001 v 0.6773338 q 0,0.3033891 -0.02117,0.6208893 0.218723,-0.021167 0.451556,-0.021167 V 7.2107799 H 58.257713 Z M 60.162715,4.995334 q 0.853722,0 0.853722,-1.3335009 0,-0.5221114 -0.1905,-0.8890005 -0.183444,-0.3668892 -0.557389,-0.3668892 -0.176389,0 -0.338667,0.084667 -0.155222,0.084667 -0.254,0.225778 v 2.1519458 q 0.07056,0.049389 0.204611,0.091722 0.141111,0.035278 0.282223,0.035278 z"
         style="font-style:normal;font-variant:normal;font-weight:normal;font-stretch:normal;font-size:7.05556px;font-family:Lora;-inkscape-font-specification:Lora;fill:#ffffff;stroke-width:0.264583"
         id="path935" />
      <path
         d="m 65.129828,6.1101125 q -0.804334,0 -1.375834,-0.3457225 Q 63.189549,5.4257232 62.900271,4.8612783 62.610993,4.289778 62.610993,3.6053886 q 0,-0.6279448 0.310445,-1.2488341 0.3175,-0.6279448 0.910167,-1.0301118 0.592667,-0.40922246 1.397001,-0.40922246 0.726723,0 1.248834,0.32455576 0.529167,0.3245558 0.797278,0.8537228 0.268112,0.5221114 0.268112,1.1147785 0,0.5503337 -0.211667,0.9383895 -0.211667,0.3810002 -0.529167,0.5715003 -0.3175,0.1905002 -0.635001,0.1905002 -0.296333,0 -0.500944,-0.1622779 -0.204612,-0.1693335 -0.204612,-0.5856115 0,-0.1058334 0.0071,-0.1622779 -0.176389,0.4515559 -0.423334,0.6632227 -0.239889,0.2116668 -0.486833,0.2116668 -0.317501,0 -0.536223,-0.2540002 -0.211667,-0.2610557 -0.211667,-0.7690561 0,-0.4727225 0.1905,-0.8960561 0.190501,-0.4303892 0.55739,-0.6985004 0.366889,-0.2681113 0.874889,-0.2681113 0.162278,0 0.388056,0.042333 0.225778,0.035278 0.451556,0.1058334 l -0.02117,0.1552224 q -0.204611,1.5310565 -0.204611,1.8626678 0,0.176389 0.0635,0.2963336 0.0635,0.1199445 0.197556,0.1199445 0.254,0 0.416278,-0.2187224 0.162277,-0.2257779 0.232833,-0.5362226 0.07056,-0.3175002 0.07056,-0.6067781 0,-0.6279449 -0.239889,-1.0724452 Q 66.548041,1.686276 66.131763,1.4534425 65.715485,1.220609 65.193373,1.220609 q -0.585611,0 -1.051278,0.3316114 -0.458612,0.3245557 -0.719668,0.8678338 -0.254,0.5362226 -0.254,1.1430008 0,0.6914449 0.282223,1.1923896 0.289278,0.4938893 0.769056,0.7478894 0.486833,0.2610557 1.072445,0.2610557 0.451556,0 0.917223,-0.1905001 0.465667,-0.1905001 0.790222,-0.5503337 l 0.155223,0.1905002 Q 66.766763,5.6585563 66.244652,5.8843343 65.72254,6.1101122 65.129873,6.1101122 Z m -0.381,-1.7215567 q 0.169333,0 0.345722,-0.3316113 0.183445,-0.3316113 0.303389,-0.8113894 0.119945,-0.4797781 0.141112,-0.881945 -0.105834,-0.035278 -0.261056,-0.021167 -0.232834,0.021167 -0.409223,0.2610557 -0.169333,0.2328335 -0.268111,0.5856115 -0.09172,0.3457224 -0.09172,0.6843893 0,0.2469446 0.0635,0.3810003 0.07055,0.1340556 0.176389,0.1340556 z"
         style="font-style:normal;font-variant:normal;font-weight:normal;font-stretch:normal;font-size:7.05556px;font-family:Lora;-inkscape-font-specification:Lora;fill:#ffffff;stroke-width:0.264583"
         id="path937" />
      <path
         d="m 69.68066,7.3236688 q -0.853723,0 -1.234723,-0.2610557 -0.373945,-0.2610557 -0.373945,-0.6632227 0,-0.2469446 0.155222,-0.4656669 Q 68.389492,5.7220567 68.74227,5.588001 68.467103,5.5103899 68.340103,5.348112 68.220159,5.1858341 68.220159,4.9671117 q 0,-0.2116668 0.162278,-0.4303891 0.169333,-0.2187224 0.522111,-0.3245558 v -0.00706 q -0.3175,-0.1270001 -0.508,-0.3951114 -0.183445,-0.2751669 -0.183445,-0.6491115 0,-0.3951114 0.218723,-0.7126116 0.225778,-0.3175002 0.585611,-0.4938892 0.366889,-0.1834446 0.769056,-0.1834446 0.211667,0 0.4445,0.056445 0.232834,0.049389 0.395112,0.1622779 0.134055,-0.3668891 0.359833,-0.6067782 0.225778,-0.2469446 0.536223,-0.2469446 0.232833,0 0.359833,0.1199445 0.127001,0.1199445 0.127001,0.3316114 0,0.1622778 -0.105834,0.2963335 -0.09878,0.1340556 -0.3175,0.1340556 -0.112889,0 -0.225778,-0.077611 -0.105833,-0.084667 -0.127,-0.1975557 -0.09172,0.028222 -0.183445,0.1834445 -0.09172,0.1481668 -0.105833,0.2751669 0.197556,0.176389 0.303389,0.4092225 0.112889,0.2328335 0.112889,0.5009447 0,0.3951114 -0.225778,0.7196672 -0.225778,0.3175002 -0.592667,0.5009447 -0.366889,0.176389 -0.783167,0.176389 l -0.197556,-0.00706 q -0.155222,-0.014111 -0.225778,-0.014111 -0.155222,0 -0.261055,0.056444 -0.105834,0.056445 -0.105834,0.1552224 0,0.127 0.1905,0.1834445 0.197556,0.049389 0.712612,0.077611 0.889,0.049389 1.347612,0.2963335 0.458611,0.2469446 0.458611,0.8255005 0,0.3810003 -0.296333,0.6632227 -0.289278,0.2822224 -0.754945,0.4303892 -0.458612,0.1481667 -0.945445,0.1481667 z m 0.105833,-3.287891 q 0.268111,0 0.423334,-0.239889 0.162278,-0.2398891 0.162278,-0.5573893 0,-0.4021669 -0.155223,-0.6985004 -0.155222,-0.2963336 -0.437444,-0.2963336 -0.268112,0 -0.43039,0.2469446 -0.162277,0.2469447 -0.162277,0.5856115 0,0.3951114 0.162277,0.6773338 0.162278,0.2822224 0.437445,0.2822224 z m 0.09878,2.8010574 q 0.3175,0 0.543278,-0.084667 0.232834,-0.084667 0.352778,-0.2187224 0.119945,-0.1270001 0.119945,-0.2610557 0,-0.2187224 -0.254001,-0.3316114 -0.246944,-0.1128889 -0.762,-0.1340556 -0.05644,-0.00706 -0.183445,-0.00706 -0.07055,-0.00706 -0.246944,-0.021167 -0.176389,-0.00706 -0.289278,-0.028222 -0.105834,0.084667 -0.169334,0.2187224 -0.05644,0.1340556 -0.05644,0.2681113 0,0.2751668 0.254,0.4374447 0.261056,0.1622779 0.691445,0.1622779 z"
         style="font-style:normal;font-variant:normal;font-weight:normal;font-stretch:normal;font-size:7.05556px;font-family:Lora;-inkscape-font-specification:Lora;fill:#ffffff;stroke-width:0.264583"
         id="path939" />
      <path
         d="m 72.093654,4.9530006 q 0.268111,0 0.338666,-0.1481667 0.07761,-0.1481668 0.07761,-0.4797781 V 3.1397217 q 0,-0.3175002 0.02822,-0.5997226 l -0.493889,0.021167 V 2.0249432 q 0.4445,0 0.719667,-0.0635 0.275167,-0.0635 0.366889,-0.1481667 h 0.345722 q 0.01411,0.1058334 0.02117,0.2751668 0.0071,0.1693335 0.0071,0.3316113 h 0.01411 q 0.479778,-0.6491115 1.016,-0.6491115 0.268112,0 0.437445,0.1481668 0.176389,0.1481667 0.176389,0.4374447 0,0.1834446 -0.119944,0.3386669 -0.119945,0.1552223 -0.359834,0.1552223 -0.176389,0 -0.3175,-0.091722 -0.134056,-0.091722 -0.155222,-0.3175002 -0.197556,0 -0.409223,0.2328335 -0.204611,0.2257779 -0.275167,0.4515559 v 1.1500563 q 0,0.3386668 -0.02822,0.6208892 0.225778,-0.021167 0.458611,-0.021167 V 5.411612 h -1.848556 z"
         style="font-style:normal;font-variant:normal;font-weight:normal;font-stretch:normal;font-size:7.05556px;font-family:Lora;-inkscape-font-specification:Lora;fill:#ffffff;stroke-width:0.264583"
         id="path941" />
      <path
         d="m 77.096037,5.524501 q -0.515056,0 -0.910167,-0.2257779 Q 75.790758,5.0658896 75.572036,4.642556 75.353313,4.2192224 75.353313,3.6547776 q 0,-0.4938892 0.218723,-0.9242784 0.225778,-0.4374447 0.627945,-0.6985005 0.402167,-0.2610557 0.917222,-0.2610557 0.68439,0 1.135946,0.4021669 0.458611,0.402167 0.451555,1.3405565 l -2.314223,0.042333 q 0,0.6208893 0.232833,0.9807229 0.239889,0.3598335 0.762001,0.3598335 0.246944,0 0.529167,-0.127 0.282222,-0.1270001 0.508,-0.402167 l 0.3175,0.2963336 Q 78.14026,5.524501 77.096037,5.524501 Z m 0.635,-2.4623905 q -0.02117,-0.7972783 -0.578556,-0.7972783 -0.303389,0 -0.486833,0.2187224 -0.176389,0.2116668 -0.232834,0.5785559 z"
         style="font-style:normal;font-variant:normal;font-weight:normal;font-stretch:normal;font-size:7.05556px;font-family:Lora;-inkscape-font-specification:Lora;fill:#ffffff;stroke-width:0.264583"
         id="path943" />
      <path
         d="m 80.891912,5.524501 q -0.515056,0 -0.910167,-0.2257779 Q 79.586634,5.0658896 79.367911,4.642556 79.149189,4.2192224 79.149189,3.6547776 q 0,-0.4938892 0.218722,-0.9242784 0.225778,-0.4374447 0.627945,-0.6985005 0.402167,-0.2610557 0.917223,-0.2610557 0.684389,0 1.135945,0.4021669 0.458612,0.402167 0.451556,1.3405565 l -2.314224,0.042333 q 0,0.6208893 0.232834,0.9807229 0.239889,0.3598335 0.762,0.3598335 0.246945,0 0.529167,-0.127 0.282223,-0.1270001 0.508001,-0.402167 l 0.3175,0.2963336 Q 81.936135,5.524501 80.891912,5.524501 Z m 0.635001,-2.4623905 q -0.02117,-0.7972783 -0.578556,-0.7972783 -0.303389,0 -0.486834,0.2187224 -0.176389,0.2116668 -0.232833,0.5785559 z"
         style="font-style:normal;font-variant:normal;font-weight:normal;font-stretch:normal;font-size:7.05556px;font-family:Lora;-inkscape-font-specification:Lora;fill:#ffffff;stroke-width:0.264583"
         id="path945" />
      <path
         d="m 83.015628,4.9530006 q 0.268111,0 0.338667,-0.1481667 0.07761,-0.1481668 0.07761,-0.4797781 V 3.1397217 q 0,-0.3175002 0.02822,-0.5997226 l -0.493889,0.021167 V 2.0249432 q 0.4445,0 0.719667,-0.0635 0.275167,-0.0635 0.366889,-0.1481667 h 0.345723 q 0,0.014111 0.02822,0.352778 h 0.01411 q 0.204611,-0.1622779 0.500945,-0.2751669 0.303389,-0.1199445 0.515056,-0.1199445 0.642056,0 0.917222,0.3668891 0.275167,0.3668892 0.275167,1.1923897 V 4.275667 q 0,0.3386668 -0.02822,0.6208892 0.232833,-0.021167 0.458611,-0.021167 V 5.411612 H 85.231074 V 4.9530006 q 0.268111,0 0.345722,-0.1481667 0.07761,-0.1481668 0.07761,-0.4797781 l -0.0071,-1.0018896 q 0,-0.4656669 -0.134056,-0.6843893 -0.127,-0.2187224 -0.437445,-0.2187224 -0.169333,0 -0.345722,0.077611 -0.176389,0.070556 -0.296334,0.1834446 v 1.5945566 q 0,0.3386668 -0.02822,0.6208892 0.225778,-0.021167 0.458612,-0.021167 V 5.411612 h -1.848557 z"
         style="font-style:normal;font-variant:normal;font-weight:normal;font-stretch:normal;font-size:7.05556px;font-family:Lora;-inkscape-font-specification:Lora;fill:#ffffff;stroke-width:0.264583"
         id="path947" />
      <path
         d="m 87.404171,6.7521685 q 0.268111,0 0.345722,-0.1481668 0.07761,-0.1481668 0.07761,-0.4797781 V 3.1397217 q 0,-0.3175002 0.02822,-0.5997226 l -0.500945,0.021167 V 2.0249432 q 0.4445,0 0.719667,-0.0635 0.275167,-0.0635 0.366889,-0.1481667 h 0.345723 q 0.01411,0.1199445 0.03528,0.3386669 h 0.0071 q 0.437445,-0.3810003 0.945445,-0.3810003 0.423334,0 0.740834,0.2187224 0.324556,0.2187223 0.500945,0.6279448 0.183444,0.402167 0.183444,0.9383895 0,0.5644448 -0.218722,1.0160007 -0.218722,0.4445003 -0.620889,0.6985004 -0.395112,0.2540002 -0.910168,0.2540002 -0.275166,0 -0.627944,-0.1270001 v 0.6773338 q 0,0.3033891 -0.02117,0.6208893 0.218722,-0.021167 0.451556,-0.021167 V 7.2107799 H 87.404171 Z M 89.309172,4.995334 q 0.853723,0 0.853723,-1.3335009 0,-0.5221114 -0.1905,-0.8890005 -0.183445,-0.3668892 -0.557389,-0.3668892 -0.176389,0 -0.338667,0.084667 -0.155223,0.084667 -0.254,0.225778 v 2.1519458 q 0.07055,0.049389 0.204611,0.091722 0.141111,0.035278 0.282222,0.035278 z"
         style="font-style:normal;font-variant:normal;font-weight:normal;font-stretch:normal;font-size:7.05556px;font-family:Lora;-inkscape-font-specification:Lora;fill:#ffffff;stroke-width:0.264583"
         id="path949" />
      <path
         d="m 93.387281,5.524501 q -0.515056,0 -0.910167,-0.2257779 Q 92.082003,5.0658896 91.86328,4.642556 91.644558,4.2192224 91.644558,3.6547776 q 0,-0.4938892 0.218722,-0.9242784 0.225778,-0.4374447 0.627945,-0.6985005 0.402167,-0.2610557 0.917223,-0.2610557 0.684389,0 1.135945,0.4021669 0.458612,0.402167 0.451556,1.3405565 l -2.314224,0.042333 q 0,0.6208893 0.232834,0.9807229 0.239889,0.3598335 0.762,0.3598335 0.246945,0 0.529167,-0.127 0.282223,-0.1270001 0.508001,-0.402167 l 0.3175,0.2963336 Q 94.431504,5.524501 93.387281,5.524501 Z m 0.635001,-2.4623905 q -0.02117,-0.7972783 -0.578556,-0.7972783 -0.303389,0 -0.486834,0.2187224 -0.176389,0.2116668 -0.232833,0.5785559 z"
         style="font-style:normal;font-variant:normal;font-weight:normal;font-stretch:normal;font-size:7.05556px;font-family:Lora;-inkscape-font-specification:Lora;fill:#ffffff;stroke-width:0.264583"
         id="path951" />
      <path
         d="m 96.392942,5.524501 q -0.444501,0 -0.705556,-0.2610557 -0.254,-0.2681113 -0.254,-0.6773338 0,-0.6208893 0.578555,-0.9383895 0.578556,-0.3245558 1.389946,-0.3598336 V 2.9209993 q 0,-0.642056 -0.479778,-0.642056 -0.310445,0 -0.508001,0.1975557 0.08467,0.098778 0.08467,0.2681113 0,0.1693335 -0.119944,0.3033891 -0.112889,0.1340556 -0.338667,0.1340556 -0.211667,0 -0.331612,-0.1340556 -0.119944,-0.1411112 -0.119944,-0.3457224 0,-0.2751669 0.197556,-0.4868337 0.197555,-0.2116668 0.536222,-0.3245558 0.345723,-0.1199445 0.754945,-0.1199445 1.305279,0 1.305279,1.347612 l -0.0071,1.1571119 q 0,0.3386668 -0.02822,0.6208892 0.232833,-0.021167 0.458611,-0.021167 V 5.411612 H 97.472403 Q 97.458293,5.31989 97.444183,5.0870563 h -0.0071 Q 97.006775,5.524501 96.392942,5.524501 Z m 0.4445,-0.6914449 q 0.3175,0 0.557389,-0.2540002 V 3.7888332 q -0.416278,0.042333 -0.691445,0.2116668 -0.268111,0.1693335 -0.268111,0.4586114 0,0.1905001 0.112889,0.2822224 0.119945,0.091722 0.289278,0.091722 z"
         style="font-style:normal;font-variant:normal;font-weight:normal;font-stretch:normal;font-size:7.05556px;font-family:Lora;-inkscape-font-specification:Lora;fill:#ffffff;stroke-width:0.264583"
         id="path953" />
      <path
         d="m 100.87321,5.524501 q -0.47978,0 -0.874893,-0.2116668 -0.395111,-0.2187224 -0.627945,-0.6208893 -0.232833,-0.4092225 -0.232833,-0.9666117 0,-0.529167 0.232833,-0.9736673 0.232834,-0.4515559 0.649108,-0.7126116 0.42334,-0.2681113 0.9525,-0.2681113 0.43039,0 0.73378,0.1340557 0.31045,0.1340556 0.46567,0.3598335 0.15522,0.2187224 0.15522,0.4727226 0,0.2187223 -0.13405,0.3739446 -0.127,0.1552224 -0.35278,0.1552224 -0.23284,0 -0.35278,-0.1411112 -0.11289,-0.1411112 -0.11289,-0.3175002 0,-0.1622779 0.0847,-0.3104447 -0.0635,-0.1270001 -0.20461,-0.176389 -0.14111,-0.056445 -0.28223,-0.056445 -0.35983,0 -0.58561,0.3316113 -0.21872,0.3245558 -0.21872,0.9242784 0,0.5997226 0.23283,0.9877784 0.23284,0.3880558 0.73378,0.3880558 0.28222,0 0.55739,-0.1481667 0.27517,-0.1481668 0.46567,-0.3951114 l 0.32455,0.3175002 q -0.35277,0.4868337 -0.75494,0.6702782 -0.40217,0.1834446 -0.85372,0.1834446 z"
         style="font-style:normal;font-variant:normal;font-weight:normal;font-stretch:normal;font-size:7.05556px;font-family:Lora;-inkscape-font-specification:Lora;fill:#ffffff;stroke-width:0.264583"
         id="path955" />
      <path
         d="m 104.53504,5.524501 q -0.51506,0 -0.91017,-0.2257779 -0.39511,-0.2328335 -0.61383,-0.6561671 -0.21872,-0.4233336 -0.21872,-0.9877784 0,-0.4938892 0.21872,-0.9242784 0.22578,-0.4374447 0.62794,-0.6985005 0.40217,-0.2610557 0.91723,-0.2610557 0.68439,0 1.13594,0.4021669 0.45861,0.402167 0.45156,1.3405565 l -2.31423,0.042333 q 0,0.6208893 0.23284,0.9807229 0.23989,0.3598335 0.762,0.3598335 0.24694,0 0.52916,-0.127 0.28223,-0.1270001 0.50801,-0.402167 l 0.3175,0.2963336 q -0.59973,0.8607783 -1.64395,0.8607786 z m 0.635,-2.4623905 q -0.0212,-0.7972783 -0.57856,-0.7972783 -0.30338,0 -0.48683,0.2187224 -0.17639,0.2116668 -0.23283,0.5785559 z"
         style="font-style:normal;font-variant:normal;font-weight:normal;font-stretch:normal;font-size:7.05556px;font-family:Lora;-inkscape-font-specification:Lora;fill:#ffffff;stroke-width:0.264583"
         id="path957" />
      <path
         d="m 107.20203,5.524501 q -0.22577,0 -0.37394,-0.1552223 -0.14817,-0.1622779 -0.14817,-0.3951114 0,-0.2257779 0.15522,-0.3880558 0.15523,-0.1622779 0.35984,-0.1622779 0.21872,0 0.35983,0.1622779 0.14817,0.1622779 0.14817,0.3880558 0,0.2328335 -0.14111,0.3951114 -0.13406,0.1552223 -0.35984,0.1552223 z"
         style="font-style:normal;font-variant:normal;font-weight:normal;font-stretch:normal;font-size:7.05556px;font-family:Lora;-inkscape-font-specification:Lora;fill:#ffffff;stroke-width:0.264583"
         id="path959" />
      <path
         d="m 110.03131,5.524501 q -0.51505,0 -0.92428,-0.2187224 -0.40922,-0.2187223 -0.64205,-0.6279448 -0.23284,-0.4092225 -0.23284,-0.9525006 0,-0.5715004 0.23989,-1.0160007 0.23989,-0.4445003 0.64206,-0.6914449 0.40922,-0.2469446 0.89605,-0.2469446 0.508,0 0.91017,0.2187224 0.40217,0.2187223 0.635,0.6350004 0.23284,0.4092225 0.23284,0.9595562 0,0.5856115 -0.22578,1.0230562 -0.21872,0.4374447 -0.62089,0.6773338 -0.39511,0.239889 -0.91017,0.239889 z m 0.0141,-0.5009448 q 0.38806,0 0.54328,-0.3598335 0.15522,-0.3598336 0.15522,-0.9031117 0,-0.6067782 -0.17639,-1.0512785 -0.17639,-0.4445003 -0.55739,-0.4445003 -0.38805,0 -0.56444,0.3668891 -0.17639,0.3668892 -0.17639,0.9031117 0,0.6138338 0.1905,1.0512785 0.1905,0.4374447 0.58561,0.4374447 z"
         style="font-style:normal;font-variant:normal;font-weight:normal;font-stretch:normal;font-size:7.05556px;font-family:Lora;-inkscape-font-specification:Lora;fill:#ffffff;stroke-width:0.264583"
         id="path961" />
      <path
         d="m 112.29615,4.9530006 q 0.26811,0 0.33866,-0.1481667 0.0776,-0.1481668 0.0776,-0.4797781 V 3.1397217 q 0,-0.3175002 0.0282,-0.5997226 l -0.49389,0.021167 V 2.0249432 q 0.4445,0 0.71966,-0.0635 0.27517,-0.0635 0.36689,-0.1481667 h 0.34573 q 0.0141,0.1058334 0.0212,0.2751668 0.007,0.1693335 0.007,0.3316113 h 0.0141 q 0.47978,-0.6491115 1.016,-0.6491115 0.26811,0 0.43744,0.1481668 0.17639,0.1481667 0.17639,0.4374447 0,0.1834446 -0.11994,0.3386669 -0.11995,0.1552223 -0.35984,0.1552223 -0.17638,0 -0.3175,-0.091722 -0.13405,-0.091722 -0.15522,-0.3175002 -0.19755,0 -0.40922,0.2328335 -0.20461,0.2257779 -0.27517,0.4515559 v 1.1500563 q 0,0.3386668 -0.0282,0.6208892 0.22578,-0.021167 0.45861,-0.021167 V 5.411612 h -1.84855 z"
         style="font-style:normal;font-variant:normal;font-weight:normal;font-stretch:normal;font-size:7.05556px;font-family:Lora;-inkscape-font-specification:Lora;fill:#ffffff;stroke-width:0.264583"
         id="path963" />
      <path
         d="m 117.15035,7.3236688 q -0.85372,0 -1.23472,-0.2610557 -0.37395,-0.2610557 -0.37395,-0.6632227 0,-0.2469446 0.15522,-0.4656669 0.16228,-0.2116668 0.51506,-0.3457225 -0.27517,-0.077611 -0.40217,-0.239889 -0.11994,-0.1622779 -0.11994,-0.3810003 0,-0.2116668 0.16228,-0.4303891 0.16933,-0.2187224 0.52211,-0.3245558 v -0.00706 q -0.3175,-0.1270001 -0.508,-0.3951114 -0.18345,-0.2751669 -0.18345,-0.6491115 0,-0.3951114 0.21872,-0.7126116 0.22578,-0.3175002 0.58562,-0.4938892 0.36688,-0.1834446 0.76905,-0.1834446 0.21167,0 0.4445,0.056445 0.23284,0.049389 0.39511,0.1622779 0.13406,-0.3668891 0.35984,-0.6067782 0.22577,-0.2469446 0.53622,-0.2469446 0.23283,0 0.35983,0.1199445 0.127,0.1199445 0.127,0.3316114 0,0.1622778 -0.10583,0.2963335 -0.0988,0.1340556 -0.3175,0.1340556 -0.11289,0 -0.22578,-0.077611 -0.10583,-0.084667 -0.127,-0.1975557 -0.0917,0.028222 -0.18344,0.1834445 -0.0917,0.1481668 -0.10584,0.2751669 0.19756,0.176389 0.30339,0.4092225 0.11289,0.2328335 0.11289,0.5009447 0,0.3951114 -0.22578,0.7196672 -0.22577,0.3175002 -0.59266,0.5009447 -0.36689,0.176389 -0.78317,0.176389 l -0.19756,-0.00706 q -0.15522,-0.014111 -0.22577,-0.014111 -0.15523,0 -0.26106,0.056444 -0.10583,0.056445 -0.10583,0.1552224 0,0.127 0.1905,0.1834445 0.19755,0.049389 0.71261,0.077611 0.889,0.049389 1.34761,0.2963335 0.45861,0.2469446 0.45861,0.8255005 0,0.3810003 -0.29633,0.6632227 -0.28928,0.2822224 -0.75495,0.4303892 -0.45861,0.1481667 -0.94544,0.1481667 z m 0.10583,-3.287891 q 0.26811,0 0.42334,-0.239889 0.16227,-0.2398891 0.16227,-0.5573893 0,-0.4021669 -0.15522,-0.6985004 -0.15522,-0.2963336 -0.43744,-0.2963336 -0.26812,0 -0.43039,0.2469446 -0.16228,0.2469447 -0.16228,0.5856115 0,0.3951114 0.16228,0.6773338 0.16227,0.2822224 0.43744,0.2822224 z m 0.0988,2.8010574 q 0.3175,0 0.54328,-0.084667 0.23283,-0.084667 0.35278,-0.2187224 0.11994,-0.1270001 0.11994,-0.2610557 0,-0.2187224 -0.254,-0.3316114 -0.24694,-0.1128889 -0.762,-0.1340556 -0.0565,-0.00706 -0.18345,-0.00706 -0.0705,-0.00706 -0.24694,-0.021167 -0.17639,-0.00706 -0.28928,-0.028222 -0.10583,0.084667 -0.16933,0.2187224 -0.0564,0.1340556 -0.0564,0.2681113 0,0.2751668 0.254,0.4374447 0.26106,0.1622779 0.69145,0.1622779 z"
         style="font-style:normal;font-variant:normal;font-weight:normal;font-stretch:normal;font-size:7.05556px;font-family:Lora;-inkscape-font-specification:Lora;fill:#ffffff;stroke-width:0.264583"
         id="path965" />
    </g>
  </g>
</svg>
